<svg width="996" height="181" viewBox="0 0 996 181" fill="none" xmlns="http://www.w3.org/2000/svg">
<path d="M28.0843 20.9014C27.9286 20.2787 27.773 19.7079 27.6173 19.189C27.4616 18.67 27.3059 18.1771 27.1503 17.71C26.0086 18.0214 25.0746 18.5663 24.3481 19.3446C23.6216 20.123 23.2584 21.0052 23.2584 21.9911C23.2584 22.8733 23.3621 23.5998 23.5697 24.1706L25.7492 24.7933C28.3957 25.5717 31.0681 26.5577 33.7665 27.7512C36.4649 28.8928 38.9298 30.2939 41.1611 31.9544C43.4444 33.5631 45.2866 35.4831 46.6877 37.7145C48.0888 39.8939 48.7893 42.3848 48.7893 45.1869C48.7893 51.5697 46.999 56.6292 43.4185 60.3654C39.8898 64.1016 34.8822 66.2552 28.3957 66.826C27.9805 66.8779 27.5395 66.9038 27.0724 66.9038C26.6573 66.9557 26.2422 66.9816 25.827 66.9816C23.8551 66.9816 21.8313 66.6962 19.7556 66.1254C17.6799 65.6065 15.5524 64.7762 13.3729 63.6346C10.8302 62.2335 8.7026 60.8584 6.99016 59.5092C5.27772 58.1081 3.87663 56.3956 2.78689 54.3719C1.74905 52.3481 0.866885 49.7275 0.140394 46.5102L13.1394 41.5285L20.9232 45.4205C21.2346 46.7697 21.5978 47.9372 22.0129 48.9232C25.1784 48.4561 26.7611 46.8734 26.7611 44.175C26.7611 43.7599 26.7092 43.3967 26.6054 43.0853C26.5535 42.7221 26.4757 42.3848 26.3719 42.0734C26.3719 42.0734 26.0605 41.8918 25.4378 41.5285C24.8151 41.1653 24.2443 40.9318 23.7254 40.828C18.6918 39.5826 14.5145 38.1037 11.1934 36.3912C7.92422 34.6788 5.48529 32.4993 3.87663 29.8528C2.31987 27.2063 1.54148 23.8593 1.54148 19.8117C1.54148 16.3868 2.34581 13.2733 3.95447 10.4711C5.56312 7.61702 7.79449 5.30782 10.6486 3.54348C13.5545 1.72726 16.8756 0.66347 20.6119 0.352114C21.0789 0.300223 21.52 0.274277 21.9351 0.274277C22.4021 0.222386 22.8432 0.19644 23.2584 0.19644C25.5935 0.19644 27.6432 0.507792 29.4076 1.1305C31.2238 1.7532 33.2995 2.60943 35.6346 3.69916C38.0217 4.7889 40.0195 6.00836 41.6282 7.35756C43.2368 8.70675 44.5601 10.3932 45.5979 12.417C46.6877 14.3889 47.5958 16.9317 48.3223 20.0452L35.8681 24.7933L28.0843 20.9014ZM20.2227 49.8572C18.147 49.8572 16.4864 49.2345 15.241 47.9891C13.9956 46.7437 13.0875 44.9534 12.5167 42.6183L0.996615 46.9772C2.19013 52.1145 4.16204 55.9546 6.91232 58.4973C9.66261 60.9881 13.3729 62.2335 18.0432 62.2335C18.4583 62.2335 18.8735 62.2335 19.2886 62.2335C19.7037 62.2335 20.1189 62.2076 20.534 62.1557C26.7611 61.6368 31.587 59.5611 35.0119 55.9286C38.4887 52.2962 40.2271 47.4183 40.2271 41.295C40.2271 36.9361 39.0076 33.5631 36.5687 31.1761C34.1298 28.789 30.4454 26.9209 25.5157 25.5717L19.2886 23.8593C17.4205 23.3403 16.1751 22.5879 15.5524 21.602C14.9816 20.616 14.6961 19.4484 14.6961 18.0992C14.6961 16.75 15.2151 15.5825 16.2529 14.5965C17.2908 13.6106 18.6659 13.0397 20.3783 12.8841C20.5859 12.8841 20.7675 12.8841 20.9232 12.8841C21.1308 12.8322 21.3383 12.8062 21.5459 12.8062C23.4659 12.8062 24.9708 13.3511 26.0605 14.4408C27.2022 15.4787 28.0584 17.2949 28.6292 19.8895L39.6044 15.6862C38.5146 10.7565 36.6465 7.09809 34 4.71106C31.4054 2.27212 27.8249 1.05266 23.2584 1.05266C22.8432 1.05266 22.4021 1.05266 21.9351 1.05266C21.52 1.05266 21.1048 1.0786 20.6897 1.1305C17.0572 1.44185 13.8659 2.45375 11.1156 4.16619C8.3653 5.87863 6.21178 8.08405 4.65501 10.7824C3.09825 13.4808 2.31987 16.4906 2.31987 19.8117C2.31987 24.3782 3.33176 28.0106 5.35556 30.709C7.43124 33.4074 11.0896 35.4312 16.3307 36.7804L21.1567 38.0258C23.1286 38.5447 24.6854 39.2193 25.827 40.0496C26.9686 40.8799 27.5395 42.255 27.5395 44.175C27.5395 47.548 25.3859 49.4421 21.0789 49.8572H20.2227ZM56.2539 62.5449V3.38781L69.5642 2.22024L77.348 6.11214V47.5999L88.2454 46.6659L96.0292 50.5578V63.7124L64.0377 66.4368L56.2539 62.5449ZM68.7858 49.1567V3.07645L57.0322 4.08835V61.7665L87.467 59.12V47.5221L68.7858 49.1567ZM130.458 66.826C130.095 66.8779 129.706 66.9038 129.29 66.9038C128.927 66.9038 128.564 66.9038 128.201 66.9038C125.502 66.9038 123.011 66.5146 120.728 65.7362C118.497 65.0097 116.317 64.1535 114.19 63.1676C108.637 60.4173 104.564 56.5513 101.969 51.5697C99.4265 46.5361 98.1551 40.5685 98.1551 33.6669C98.1551 29.6193 98.6481 25.7014 99.6341 21.9133C100.672 18.0733 102.203 14.6225 104.227 11.5608C106.25 8.44729 108.767 5.90458 111.777 3.93267C114.838 1.96077 118.419 0.7932 122.519 0.429956C122.934 0.378062 123.323 0.352114 123.686 0.352114C124.049 0.352114 124.413 0.352114 124.776 0.352114C127.37 0.352114 129.68 0.689414 131.703 1.36401C133.727 1.98672 135.777 2.71321 137.853 3.54348C141.589 5.04835 144.702 7.27972 147.193 10.2376C149.684 13.1954 151.552 16.6722 152.798 20.6679C154.043 24.6117 154.666 28.8409 154.666 33.3555C154.666 37.5588 154.173 41.5804 153.187 45.4205C152.201 49.2605 150.696 52.7372 148.672 55.8508C146.7 58.9124 144.183 61.4032 141.122 63.3233C138.112 65.2952 134.557 66.4627 130.458 66.826ZM122.596 62.1557C126.592 61.8443 130.069 60.7546 133.027 58.8865C135.985 56.9665 138.423 54.5016 140.343 51.4918C142.263 48.4302 143.691 45.0313 144.625 41.295C145.611 37.5069 146.103 33.5631 146.103 29.4636C146.103 25.7274 145.662 22.1728 144.78 18.7998C143.95 15.3749 142.653 12.3392 140.888 9.6927C139.124 7.0462 136.893 4.97052 134.194 3.46565C131.548 1.90888 128.408 1.1305 124.776 1.1305C124.413 1.1305 124.049 1.1305 123.686 1.1305C123.375 1.1305 123.011 1.15644 122.596 1.20834C118.601 1.57158 115.124 2.71321 112.166 4.63322C109.208 6.50134 106.743 8.96621 104.771 12.0279C102.799 15.0376 101.321 18.4106 100.335 22.1468C99.4006 25.8312 98.9335 29.6712 98.9335 33.6669C98.9335 37.5588 99.3746 41.2431 100.257 44.7199C101.139 48.1448 102.462 51.1805 104.227 53.827C105.991 56.4216 108.222 58.4713 110.921 59.9762C113.619 61.4811 116.758 62.2335 120.339 62.2335C120.754 62.2335 121.143 62.2335 121.507 62.2335C121.87 62.2335 122.233 62.2076 122.596 62.1557ZM122.596 50.0907C122.389 50.0907 122.181 50.1167 121.974 50.1686C121.818 50.1686 121.636 50.1686 121.429 50.1686C118.315 50.1686 115.85 48.8194 114.034 46.121C112.27 43.4226 111.388 38.908 111.388 32.5771C111.388 28.0625 111.881 24.4301 112.867 21.6798C113.853 18.9295 115.202 16.9057 116.914 15.6084C118.627 14.2592 120.521 13.5068 122.596 13.3511C122.804 13.3511 123.011 13.3511 123.219 13.3511C123.427 13.2992 123.634 13.2733 123.842 13.2733C126.903 13.2733 129.29 14.5965 131.003 17.243C132.715 19.8376 133.572 24.3003 133.572 30.6312C133.572 37.3772 132.534 42.255 130.458 45.2648C128.434 48.2226 125.814 49.8313 122.596 50.0907ZM122.363 49.3124C125.424 49.0529 127.915 47.4961 129.835 44.6421C131.807 41.788 132.793 37.1177 132.793 30.6312C132.793 27.6733 132.612 25.1566 132.248 23.0809C131.885 21.0052 131.34 19.3187 130.614 18.0214C130.354 17.9695 130.095 17.9436 129.835 17.9436C129.576 17.8917 129.316 17.8657 129.057 17.8657C125.995 17.8657 123.712 19.4744 122.207 22.6917C120.702 25.8571 119.95 30.4496 119.95 36.4691C119.95 39.4788 120.157 42.0475 120.573 44.175C120.988 46.2507 121.584 47.9632 122.363 49.3124ZM195.612 62.0778L193.354 51.1026L190.241 65.7362L177.242 66.826L169.458 62.9341L157.16 4.7889L171.248 3.62132L179.032 7.51323L180.745 16.6981L183.547 3.23213L195.923 2.22024L203.395 6.11214L205.808 17.8657L208.844 1.7532L221.454 0.663468L229.238 4.55538L217.251 64.88L203.395 66.0476L195.612 62.0778ZM209.467 2.53158L203.395 35.535C203.344 36.002 203.266 36.5988 203.162 37.3253C203.11 38.0518 203.058 38.7264 203.006 39.3491C202.954 39.9199 202.928 40.2053 202.928 40.2053H202.695C202.695 40.2053 202.669 39.9199 202.617 39.3491C202.565 38.7783 202.487 38.1296 202.384 37.4031C202.28 36.6247 202.176 36.028 202.072 35.6128L195.222 3.07645L184.169 4.01051L178.098 34.4453C177.994 35.068 177.865 35.8723 177.709 36.8582C177.553 37.8442 177.423 38.7523 177.32 39.5826C177.268 40.361 177.242 40.7502 177.242 40.7502H177.008C177.008 40.7502 176.982 40.3869 176.93 39.6604C176.879 38.882 176.775 37.9999 176.619 37.0139C176.515 35.9761 176.386 35.068 176.23 34.2896L170.548 4.47754L158.094 5.56728L170.081 62.0778L181.756 61.1438L188.451 30.0085C188.554 29.4896 188.658 28.7112 188.762 27.6733C188.918 26.5836 189.021 25.5717 189.073 24.6376C189.177 23.7036 189.229 23.2366 189.229 23.2366L189.462 23.1587C189.462 23.1587 189.488 23.6257 189.54 24.5598C189.644 25.442 189.748 26.4279 189.852 27.5177C190.007 28.5555 190.137 29.3339 190.241 29.8528L196.234 61.3773L208.766 60.2876L220.442 1.59753L209.467 2.53158ZM286.682 61.0659L283.802 51.8032L277.653 52.3481L273.839 65.9698L260.607 67.1373L252.823 63.2454L269.869 2.45375L282.713 1.36401L290.496 5.25592L307.854 63.8681L294.466 64.9579L286.682 61.0659ZM270.492 3.23213L253.99 62.3114L265.355 61.3773L269.247 47.7556L283.102 46.5102L287.227 60.2876L298.981 59.2757L282.09 2.22024L270.492 3.23213ZM271.971 36.3912C272.957 33.1739 273.761 30.1123 274.384 27.2063C275.059 24.3003 275.629 21.3944 276.096 18.4884H276.408C276.823 21.3425 277.342 24.1447 277.965 26.895C278.639 29.5933 279.443 32.4993 280.377 35.6128L271.971 36.3912ZM338.67 61.2995L332.833 48.1448V65.5806L319.444 66.7481L311.661 62.8562V3.69916L324.27 2.60943L332.054 6.50133L337.814 18.9555V2.22024L351.358 0.974822L359.142 4.86673V64.1016L346.454 65.1914L338.67 61.2995ZM338.593 2.92078V24.7155C338.593 25.2863 338.619 26.2204 338.67 27.5177C338.722 28.7631 338.774 30.0863 338.826 31.4874C338.93 32.8366 339.008 34.0042 339.06 34.9901C339.112 35.9242 339.137 36.3912 339.137 36.3912L338.904 36.5469C338.904 36.5469 338.826 36.2615 338.67 35.6907C338.567 35.1199 338.385 34.4453 338.126 33.6669C337.866 32.8366 337.581 32.0842 337.269 31.4096L323.803 3.46565L312.439 4.39971V62L324.27 61.0659V40.6723C324.27 40.0496 324.244 38.9858 324.193 37.481C324.141 35.9761 324.089 34.3934 324.037 32.7328C324.037 31.0723 324.011 29.6712 323.959 28.5296C323.907 27.336 323.881 26.7393 323.881 26.7393L324.115 26.6614C324.115 26.6614 324.244 27.1804 324.504 28.2182C324.815 29.2042 325.23 30.242 325.749 31.3317L339.371 60.5211L350.58 59.5092V1.83104L338.593 2.92078ZM369.127 62.9341V3.777L385.317 2.37591C385.992 2.32402 386.641 2.29807 387.263 2.29807C387.886 2.24618 388.457 2.22024 388.976 2.22024C391.83 2.22024 394.373 2.55753 396.604 3.23213C398.887 3.90673 401.378 4.89268 404.076 6.18999C407.709 7.85053 410.667 9.90027 412.95 12.3392C415.233 14.7262 416.92 17.6841 418.009 21.2128C419.099 24.6895 419.644 28.9447 419.644 33.9782C419.644 40.5685 418.528 46.121 416.297 50.6356C414.118 55.1502 411.108 58.627 407.268 61.0659C403.428 63.453 398.991 64.88 393.957 65.347L376.911 66.826L369.127 62.9341ZM386.096 60.7546C390.974 60.3395 395.281 58.9384 399.017 56.5513C402.805 54.1643 405.763 50.7653 407.891 46.3545C410.018 41.9437 411.082 36.521 411.082 30.0863C411.082 21.2647 409.188 14.5446 405.4 9.92622C401.663 5.30782 396.111 2.99862 388.742 2.99862C388.223 2.99862 387.679 3.02456 387.108 3.07645C386.537 3.07645 385.966 3.1024 385.395 3.15429L369.905 4.47754V62.0778L386.096 60.7546ZM381.659 14.9079L383.916 14.7522C384.487 14.7003 385.006 14.6744 385.473 14.6744C385.992 14.6225 386.511 14.5965 387.03 14.5965C389.728 14.5965 391.934 15.0895 393.646 16.0754C395.41 17.0614 396.708 18.7479 397.538 21.1349C398.42 23.522 398.861 26.869 398.861 31.1761C398.861 37.2993 397.59 41.788 395.047 44.6421C392.504 47.4442 389.054 49.027 384.695 49.3902L381.659 49.6237V14.9079ZM390.221 47.2107C392.868 46.0691 394.84 44.2269 396.137 41.6842C397.434 39.0896 398.083 35.5869 398.083 31.1761C398.083 25.6755 397.305 21.7317 395.748 19.3446C395.54 19.2928 395.333 19.2668 395.125 19.2668C394.917 19.2668 394.71 19.2668 394.502 19.2668C394.035 19.2668 393.568 19.2928 393.101 19.3446C392.686 19.3446 392.245 19.3706 391.778 19.4225L390.221 19.5003V47.2107ZM476.11 20.9014C475.955 20.2787 475.799 19.7079 475.643 19.189C475.488 18.67 475.332 18.1771 475.176 17.71C474.035 18.0214 473.101 18.5663 472.374 19.3446C471.648 20.123 471.284 21.0052 471.284 21.9911C471.284 22.8733 471.388 23.5998 471.596 24.1706L473.775 24.7933C476.422 25.5717 479.094 26.5577 481.792 27.7512C484.491 28.8928 486.956 30.2939 489.187 31.9544C491.47 33.5631 493.313 35.4831 494.714 37.7145C496.115 39.8939 496.815 42.3848 496.815 45.1869C496.815 51.5697 495.025 56.6292 491.444 60.3654C487.916 64.1016 482.908 66.2552 476.422 66.826C476.006 66.8779 475.565 66.9038 475.098 66.9038C474.683 66.9557 474.268 66.9816 473.853 66.9816C471.881 66.9816 469.857 66.6962 467.782 66.1254C465.706 65.6065 463.578 64.7762 461.399 63.6346C458.856 62.2335 456.729 60.8584 455.016 59.5092C453.304 58.1081 451.903 56.3956 450.813 54.3719C449.775 52.3481 448.893 49.7275 448.166 46.5102L461.165 41.5285L468.949 45.4205C469.26 46.7697 469.624 47.9372 470.039 48.9232C473.204 48.4561 474.787 46.8734 474.787 44.175C474.787 43.7599 474.735 43.3967 474.631 43.0853C474.579 42.7221 474.502 42.3848 474.398 42.0734C474.398 42.0734 474.086 41.8918 473.464 41.5285C472.841 41.1653 472.27 40.9318 471.751 40.828C466.718 39.5826 462.54 38.1037 459.219 36.3912C455.95 34.6788 453.511 32.4993 451.903 29.8528C450.346 27.2063 449.567 23.8593 449.567 19.8117C449.567 16.3868 450.372 13.2733 451.98 10.4711C453.589 7.61702 455.82 5.30782 458.674 3.54348C461.58 1.72726 464.902 0.66347 468.638 0.352114C469.105 0.300223 469.546 0.274277 469.961 0.274277C470.428 0.222386 470.869 0.19644 471.284 0.19644C473.619 0.19644 475.669 0.507792 477.434 1.1305C479.25 1.7532 481.325 2.60943 483.661 3.69916C486.048 4.7889 488.045 6.00836 489.654 7.35756C491.263 8.70675 492.586 10.3932 493.624 12.417C494.714 14.3889 495.622 16.9317 496.348 20.0452L483.894 24.7933L476.11 20.9014ZM468.249 49.8572C466.173 49.8572 464.512 49.2345 463.267 47.9891C462.022 46.7437 461.113 44.9534 460.543 42.6183L449.023 46.9772C450.216 52.1145 452.188 55.9546 454.938 58.4973C457.689 60.9881 461.399 62.2335 466.069 62.2335C466.484 62.2335 466.899 62.2335 467.315 62.2335C467.73 62.2335 468.145 62.2076 468.56 62.1557C474.787 61.6368 479.613 59.5611 483.038 55.9286C486.515 52.2962 488.253 47.4183 488.253 41.295C488.253 36.9361 487.034 33.5631 484.595 31.1761C482.156 28.789 478.471 26.9209 473.542 25.5717L467.315 23.8593C465.446 23.3403 464.201 22.5879 463.578 21.602C463.007 20.616 462.722 19.4484 462.722 18.0992C462.722 16.75 463.241 15.5825 464.279 14.5965C465.317 13.6106 466.692 13.0397 468.404 12.8841C468.612 12.8841 468.793 12.8841 468.949 12.8841C469.157 12.8322 469.364 12.8062 469.572 12.8062C471.492 12.8062 472.997 13.3511 474.086 14.4408C475.228 15.4787 476.084 17.2949 476.655 19.8895L487.63 15.6862C486.541 10.7565 484.672 7.09809 482.026 4.71106C479.431 2.27212 475.851 1.05266 471.284 1.05266C470.869 1.05266 470.428 1.05266 469.961 1.05266C469.546 1.05266 469.131 1.0786 468.716 1.1305C465.083 1.44185 461.892 2.45375 459.142 4.16619C456.391 5.87863 454.238 8.08405 452.681 10.7824C451.124 13.4808 450.346 16.4906 450.346 19.8117C450.346 24.3782 451.358 28.0106 453.381 30.709C455.457 33.4074 459.116 35.4312 464.357 36.7804L469.183 38.0258C471.155 38.5447 472.711 39.2193 473.853 40.0496C474.995 40.8799 475.565 42.255 475.565 44.175C475.565 47.548 473.412 49.4421 469.105 49.8572H468.249ZM513.231 61.7665V20.2009L508.327 20.5901L500.544 16.6981V3.62132L539.307 0.19644L547.091 4.08835V17.1652L534.403 18.2549V64.3351L521.015 65.5806L513.231 61.7665ZM538.529 12.5727V1.05266L501.322 4.32186V15.8419L514.01 14.7522V60.9103L525.841 59.8984V13.6625L538.529 12.5727ZM553.309 62.6227V3.46565L586.857 0.507794L594.641 4.39971V17.1652L574.403 18.9555V23.6257L582.732 22.8474L590.515 26.7393V39.3491L574.403 40.828V48.1448L588.18 46.8994L595.964 50.7913V63.4789L561.093 66.5146L553.309 62.6227ZM565.841 49.7016V36.2355L581.953 34.7566V23.7036L565.841 25.1825V14.363L586.079 12.5727V1.36401L554.087 4.16619V61.8443L587.402 58.8865V47.7556L565.841 49.7016ZM629.961 61.0659L627.081 51.8032L620.932 52.3481L617.118 65.9698L603.885 67.1373L596.102 63.2454L613.148 2.45375L625.991 1.36401L633.775 5.25592L651.133 63.8681L637.745 64.9579L629.961 61.0659ZM613.771 3.23213L597.269 62.3114L608.633 61.3773L612.525 47.7556L626.381 46.5102L630.506 60.2876L642.26 59.2757L625.369 2.22024L613.771 3.23213ZM615.25 36.3912C616.236 33.1739 617.04 30.1123 617.663 27.2063C618.337 24.3003 618.908 21.3944 619.375 18.4884H619.687C620.102 21.3425 620.621 24.1447 621.243 26.895C621.918 29.5933 622.722 32.4993 623.656 35.6128L615.25 36.3912ZM654.939 62.9341V3.777L671.13 2.37591C671.804 2.32402 672.453 2.29807 673.076 2.29807C673.698 2.24618 674.269 2.22024 674.788 2.22024C677.642 2.22024 680.185 2.55753 682.416 3.23213C684.7 3.90673 687.19 4.89268 689.889 6.18999C693.521 7.85053 696.479 9.90027 698.762 12.3392C701.046 14.7262 702.732 17.6841 703.822 21.2128C704.911 24.6895 705.456 28.9447 705.456 33.9782C705.456 40.5685 704.341 46.121 702.109 50.6356C699.93 55.1502 696.92 58.627 693.08 61.0659C689.24 63.453 684.803 64.88 679.77 65.347L662.723 66.826L654.939 62.9341ZM671.908 60.7546C676.786 60.3395 681.093 58.9384 684.829 56.5513C688.617 54.1643 691.575 50.7653 693.703 46.3545C695.83 41.9437 696.894 36.521 696.894 30.0863C696.894 21.2647 695 14.5446 691.212 9.92622C687.476 5.30782 681.923 2.99862 674.555 2.99862C674.036 2.99862 673.491 3.02456 672.92 3.07645C672.349 3.07645 671.778 3.1024 671.208 3.15429L655.718 4.47754V62.0778L671.908 60.7546ZM667.471 14.9079L669.729 14.7522C670.299 14.7003 670.818 14.6744 671.285 14.6744C671.804 14.6225 672.323 14.5965 672.842 14.5965C675.541 14.5965 677.746 15.0895 679.458 16.0754C681.223 17.0614 682.52 18.7479 683.35 21.1349C684.232 23.522 684.674 26.869 684.674 31.1761C684.674 37.2993 683.402 41.788 680.859 44.6421C678.317 47.4442 674.866 49.027 670.507 49.3902L667.471 49.6237V14.9079ZM676.034 47.2107C678.68 46.0691 680.652 44.2269 681.949 41.6842C683.247 39.0896 683.895 35.5869 683.895 31.1761C683.895 25.6755 683.117 21.7317 681.56 19.3446C681.352 19.2928 681.145 19.2668 680.937 19.2668C680.73 19.2668 680.522 19.2668 680.315 19.2668C679.848 19.2668 679.381 19.2928 678.914 19.3446C678.498 19.3446 678.057 19.3706 677.59 19.4225L676.034 19.5003V47.2107ZM722.045 61.8443V41.0615L706.322 3.93267L721.111 2.60943L728.895 6.50133L732.164 15.0635L736.523 1.98672L750.612 0.741305L758.395 4.63322L743.217 43.8637V64.413L729.829 65.6584L722.045 61.8443ZM749.444 1.67537L736.99 2.7651L729.206 25.9609L720.566 3.46565L707.489 4.63322L722.823 40.9058V60.9881L734.655 59.8984V39.8939L749.444 1.67537ZM822.27 62.0778L820.013 51.1026L816.899 65.7362L803.9 66.826L796.117 62.9341L783.818 4.7889L797.907 3.62132L805.691 7.51323L807.403 16.6981L810.205 3.23213L822.582 2.22024L830.054 6.11214L832.467 17.8657L835.503 1.7532L848.113 0.663468L855.896 4.55538L843.909 64.88L830.054 66.0476L822.27 62.0778ZM836.125 2.53158L830.054 35.535C830.002 36.002 829.924 36.5988 829.821 37.3253C829.769 38.0518 829.717 38.7264 829.665 39.3491C829.613 39.9199 829.587 40.2053 829.587 40.2053H829.354C829.354 40.2053 829.328 39.9199 829.276 39.3491C829.224 38.7783 829.146 38.1296 829.042 37.4031C828.938 36.6247 828.835 36.028 828.731 35.6128L821.881 3.07645L810.828 4.01051L804.757 34.4453C804.653 35.068 804.523 35.8723 804.367 36.8582C804.212 37.8442 804.082 38.7523 803.978 39.5826C803.926 40.361 803.9 40.7502 803.9 40.7502H803.667C803.667 40.7502 803.641 40.3869 803.589 39.6604C803.537 38.882 803.433 37.9999 803.278 37.0139C803.174 35.9761 803.044 35.068 802.889 34.2896L797.206 4.47754L784.752 5.56728L796.739 62.0778L808.415 61.1438L815.109 30.0085C815.213 29.4896 815.317 28.7112 815.421 27.6733C815.576 26.5836 815.68 25.5717 815.732 24.6376C815.836 23.7036 815.888 23.2366 815.888 23.2366L816.121 23.1587C816.121 23.1587 816.147 23.6257 816.199 24.5598C816.303 25.442 816.406 26.4279 816.51 27.5177C816.666 28.5555 816.796 29.3339 816.899 29.8528L822.893 61.3773L835.425 60.2876L847.101 1.59753L836.125 2.53158ZM861.554 61.8443V2.68726L875.098 1.44185L882.882 5.33376V64.4908L869.338 65.6584L861.554 61.8443ZM862.333 3.38781V60.9881L874.32 59.8984V2.29807L862.333 3.38781ZM920.253 61.2995L914.415 48.1448V65.5806L901.027 66.7481L893.243 62.8562V3.69916L905.853 2.60943L913.637 6.50133L919.397 18.9555V2.22024L932.94 0.974822L940.724 4.86673V64.1016L928.037 65.1914L920.253 61.2995ZM920.175 2.92078V24.7155C920.175 25.2863 920.201 26.2204 920.253 27.5177C920.305 28.7631 920.357 30.0863 920.408 31.4874C920.512 32.8366 920.59 34.0042 920.642 34.9901C920.694 35.9242 920.72 36.3912 920.72 36.3912L920.486 36.5469C920.486 36.5469 920.408 36.2615 920.253 35.6907C920.149 35.1199 919.967 34.4453 919.708 33.6669C919.448 32.8366 919.163 32.0842 918.852 31.4096L905.386 3.46565L894.021 4.39971V62L905.853 61.0659V40.6723C905.853 40.0496 905.827 38.9858 905.775 37.481C905.723 35.9761 905.671 34.3934 905.619 32.7328C905.619 31.0723 905.593 29.6712 905.541 28.5296C905.489 27.336 905.464 26.7393 905.464 26.7393L905.697 26.6614C905.697 26.6614 905.827 27.1804 906.086 28.2182C906.398 29.2042 906.813 30.242 907.332 31.3317L920.953 60.5211L932.162 59.5092V1.83104L920.175 2.92078ZM974.761 20.9014C974.606 20.2787 974.45 19.7079 974.294 19.189C974.139 18.67 973.983 18.1771 973.827 17.71C972.686 18.0214 971.752 18.5663 971.025 19.3446C970.299 20.123 969.935 21.0052 969.935 21.9911C969.935 22.8733 970.039 23.5998 970.247 24.1706L972.426 24.7933C975.073 25.5717 977.745 26.5577 980.444 27.7512C983.142 28.8928 985.607 30.2939 987.838 31.9544C990.122 33.5631 991.964 35.4831 993.365 37.7145C994.766 39.8939 995.466 42.3848 995.466 45.1869C995.466 51.5697 993.676 56.6292 990.096 60.3654C986.567 64.1016 981.559 66.2552 975.073 66.826C974.658 66.8779 974.217 66.9038 973.75 66.9038C973.334 66.9557 972.919 66.9816 972.504 66.9816C970.532 66.9816 968.508 66.6962 966.433 66.1254C964.357 65.6065 962.229 64.7762 960.05 63.6346C957.507 62.2335 955.38 60.8584 953.667 59.5092C951.955 58.1081 950.554 56.3956 949.464 54.3719C948.426 52.3481 947.544 49.7275 946.818 46.5102L959.817 41.5285L967.6 45.4205C967.912 46.7697 968.275 47.9372 968.69 48.9232C971.855 48.4561 973.438 46.8734 973.438 44.175C973.438 43.7599 973.386 43.3967 973.283 43.0853C973.231 42.7221 973.153 42.3848 973.049 42.0734C973.049 42.0734 972.738 41.8918 972.115 41.5285C971.492 41.1653 970.921 40.9318 970.403 40.828C965.369 39.5826 961.192 38.1037 957.871 36.3912C954.601 34.6788 952.162 32.4993 950.554 29.8528C948.997 27.2063 948.219 23.8593 948.219 19.8117C948.219 16.3868 949.023 13.2733 950.632 10.4711C952.24 7.61702 954.472 5.30782 957.326 3.54348C960.232 1.72726 963.553 0.66347 967.289 0.352114C967.756 0.300223 968.197 0.274277 968.612 0.274277C969.079 0.222386 969.52 0.19644 969.935 0.19644C972.271 0.19644 974.32 0.507792 976.085 1.1305C977.901 1.7532 979.977 2.60943 982.312 3.69916C984.699 4.7889 986.697 6.00836 988.305 7.35756C989.914 8.70675 991.237 10.3932 992.275 12.417C993.365 14.3889 994.273 16.9317 994.999 20.0452L982.545 24.7933L974.761 20.9014ZM966.9 49.8572C964.824 49.8572 963.164 49.2345 961.918 47.9891C960.673 46.7437 959.765 44.9534 959.194 42.6183L947.674 46.9772C948.867 52.1145 950.839 55.9546 953.589 58.4973C956.34 60.9881 960.05 62.2335 964.72 62.2335C965.135 62.2335 965.551 62.2335 965.966 62.2335C966.381 62.2335 966.796 62.2076 967.211 62.1557C973.438 61.6368 978.264 59.5611 981.689 55.9286C985.166 52.2962 986.904 47.4183 986.904 41.295C986.904 36.9361 985.685 33.5631 983.246 31.1761C980.807 28.789 977.123 26.9209 972.193 25.5717L965.966 23.8593C964.098 23.3403 962.852 22.5879 962.229 21.602C961.659 20.616 961.373 19.4484 961.373 18.0992C961.373 16.75 961.892 15.5825 962.93 14.5965C963.968 13.6106 965.343 13.0397 967.055 12.8841C967.263 12.8841 967.445 12.8841 967.6 12.8841C967.808 12.8322 968.015 12.8062 968.223 12.8062C970.143 12.8062 971.648 13.3511 972.738 14.4408C973.879 15.4787 974.735 17.2949 975.306 19.8895L986.282 15.6862C985.192 10.7565 983.324 7.09809 980.677 4.71106C978.083 2.27212 974.502 1.05266 969.935 1.05266C969.52 1.05266 969.079 1.05266 968.612 1.05266C968.197 1.05266 967.782 1.0786 967.367 1.1305C963.734 1.44185 960.543 2.45375 957.793 4.16619C955.042 5.87863 952.889 8.08405 951.332 10.7824C949.775 13.4808 948.997 16.4906 948.997 19.8117C948.997 24.3782 950.009 28.0106 952.033 30.709C954.108 33.4074 957.767 35.4312 963.008 36.7804L967.834 38.0258C969.806 38.5447 971.363 39.2193 972.504 40.0496C973.646 40.8799 974.217 42.255 974.217 44.175C974.217 47.548 972.063 49.4421 967.756 49.8572H966.9ZM303.281 174.766V133.201L298.377 133.59L290.593 129.698V116.621L329.357 113.196L337.14 117.088V130.165L324.453 131.255V177.335L311.065 178.581L303.281 174.766ZM328.578 125.573V114.053L291.372 117.322V128.842L304.059 127.752V173.91L315.891 172.898V126.662L328.578 125.573ZM369.59 174.455V153.75L364.53 154.217V178.581L351.142 179.748L343.358 175.856V116.699L356.747 115.532L364.53 119.423V136.937L369.59 136.47V115.22L383.056 113.975L390.84 117.867V177.102L377.374 178.269L369.59 174.455ZM370.368 115.921V137.171L355.968 138.416V116.388L344.137 117.4V175L355.968 174.066V149.625L370.368 148.379V173.599L382.277 172.509V114.831L370.368 115.921ZM400.825 175.623V116.466L434.373 113.508L442.157 117.4V130.165L421.919 131.955V136.626L430.248 135.847L438.032 139.739V152.349L421.919 153.828V161.145L435.696 159.899L443.48 163.791V176.479L408.609 179.515L400.825 175.623ZM413.357 162.702V149.236L429.469 147.757V136.704L413.357 138.183V127.363L433.595 125.573V114.364L401.603 117.166V174.844L434.918 171.886V160.756L413.357 162.702ZM501.865 174.222L496.338 164.258V178.425L482.95 179.592L475.166 175.701V116.543L494.704 114.831C495.119 114.779 495.508 114.753 495.871 114.753C496.287 114.753 496.676 114.753 497.039 114.753C500.049 114.753 502.955 115.22 505.757 116.154C508.559 117.088 511.076 118.463 513.307 120.28C515.539 122.096 517.303 124.301 518.6 126.896C519.898 129.439 520.546 132.345 520.546 135.614C520.546 143.865 517.536 149.806 511.517 153.439L524.672 176.868L509.649 178.114L501.865 174.222ZM502.643 149.236C505.861 147.471 508.222 145.136 509.727 142.23C511.232 139.324 511.984 135.821 511.984 131.722C511.984 126.896 510.635 123.004 507.936 120.046C505.29 117.036 501.554 115.532 496.728 115.532C496.416 115.532 496.105 115.532 495.794 115.532C495.482 115.532 495.145 115.558 494.782 115.609L475.945 117.244V174.922L487.776 173.91V153.361L491.123 153.05L502.254 173.443L515.565 172.276L502.643 149.236ZM487.776 127.441L492.914 126.974H493.77C495.482 126.974 496.909 127.493 498.051 128.531C499.244 129.517 499.841 131.255 499.841 133.746C499.841 136.34 499.218 138.364 497.973 139.817C496.728 141.218 495.041 142.023 492.914 142.23L487.776 142.697V127.441ZM496.338 140.284C498.155 138.987 499.063 136.807 499.063 133.746C499.063 133.382 499.037 133.045 498.985 132.734C498.985 132.422 498.959 132.111 498.907 131.8L496.338 132.033V140.284ZM556.456 174.066L553.576 164.803L547.427 165.348L543.612 178.97L530.38 180.137L522.596 176.245L539.643 115.454L552.486 114.364L560.27 118.256L577.628 176.868L564.24 177.958L556.456 174.066ZM540.265 116.232L523.764 175.311L535.128 174.377L539.02 160.756L552.875 159.51L557.001 173.288L568.754 172.276L551.863 115.22L540.265 116.232ZM541.744 149.391C542.73 146.174 543.535 143.112 544.157 140.206C544.832 137.3 545.403 134.394 545.87 131.488H546.181C546.596 134.342 547.115 137.145 547.738 139.895C548.412 142.593 549.217 145.499 550.151 148.613L541.744 149.391ZM613.036 136.237C612.673 135.354 612.284 134.524 611.869 133.746C611.505 132.967 611.116 132.241 610.701 131.566C607.069 131.981 604.448 133.772 602.839 136.937C601.231 140.103 600.426 144.228 600.426 149.313C600.426 154.918 601.205 159.095 602.762 161.845C602.917 161.793 603.151 161.768 603.462 161.768C605.019 161.612 606.342 161.041 607.432 160.055C608.574 159.017 609.534 157.746 610.312 156.241C611.142 154.684 611.817 153.05 612.336 151.337L631.25 160.911C629.382 166.516 626.891 170.952 623.778 174.222C620.664 177.491 616.331 179.359 610.779 179.826C610.364 179.878 609.923 179.904 609.456 179.904C609.041 179.904 608.625 179.904 608.21 179.904C604.578 179.904 600.997 179.255 597.469 177.958C593.992 176.712 590.852 174.741 588.05 172.042C585.3 169.344 583.094 165.893 581.434 161.69C579.773 157.435 578.943 152.349 578.943 146.433C578.943 142.074 579.488 137.975 580.578 134.135C581.667 130.243 583.25 126.818 585.326 123.86C587.453 120.902 589.996 118.515 592.954 116.699C595.964 114.831 599.363 113.741 603.151 113.43C603.566 113.378 603.981 113.352 604.396 113.352C604.811 113.352 605.226 113.352 605.642 113.352C609.793 113.352 613.555 114.234 616.928 115.999C620.353 117.763 623.285 120.098 625.724 123.004C628.215 125.91 630.109 129.127 631.406 132.656L620.82 140.128L613.036 136.237ZM612.803 152.505C612.336 154.01 611.687 155.514 610.857 157.019C610.026 158.524 609.015 159.796 607.821 160.833C606.628 161.819 605.201 162.39 603.54 162.546C603.332 162.598 603.099 162.624 602.839 162.624C602.632 162.624 602.398 162.624 602.139 162.624C598.818 162.624 596.275 161.275 594.511 158.576C592.746 155.878 591.864 151.493 591.864 145.421C591.864 139.973 592.746 135.614 594.511 132.345C596.275 129.075 599.129 127.259 603.073 126.896H603.929C606.472 126.896 608.444 127.7 609.845 129.309C611.298 130.918 612.465 132.838 613.348 135.069L622.688 128.531C621.754 126.04 620.535 123.705 619.03 121.525C617.577 119.346 615.709 117.581 613.425 116.232C611.194 114.831 608.444 114.13 605.175 114.13C604.863 114.13 604.552 114.13 604.241 114.13C603.929 114.13 603.592 114.156 603.229 114.208C599.544 114.52 596.249 115.583 593.343 117.4C590.437 119.164 587.972 121.499 585.949 124.405C583.925 127.311 582.368 130.658 581.278 134.446C580.24 138.183 579.721 142.178 579.721 146.433C579.721 152.349 580.578 157.46 582.29 161.768C584.054 166.075 586.519 169.396 589.685 171.731C592.902 174.066 596.638 175.234 600.893 175.234C601.205 175.234 601.516 175.234 601.828 175.234C602.191 175.234 602.554 175.208 602.917 175.156C608.314 174.741 612.491 172.976 615.449 169.863C618.459 166.697 620.82 162.572 622.533 157.486L612.803 152.505ZM638.292 175.623V116.466L671.841 113.508L679.624 117.4V130.165L659.386 131.955V136.626L667.715 135.847L675.499 139.739V152.349L659.386 153.828V161.145L673.164 159.899L680.948 163.791V176.479L646.076 179.515L638.292 175.623ZM650.824 162.702V149.236L666.937 147.757V136.704L650.824 138.183V127.363L671.062 125.573V114.364L639.071 117.166V174.844L672.385 171.886V160.756L650.824 162.702ZM684.199 176.168V160.911L698.21 159.666L705.993 163.558V178.892L691.982 180.059L684.199 176.168ZM684.977 161.612V175.311L697.431 174.299V160.522L684.977 161.612Z" fill="black"/>
</svg>
